<?xml version="1.0" encoding="UTF-8"?>
<svg id="Layer_1" xmlns="http://www.w3.org/2000/svg" version="1.1" viewBox="0 0 1042 290">
  <!-- Generator: Adobe Illustrator 29.6.0, SVG Export Plug-In . SVG Version: 2.1.1 Build 207)  -->
  <defs>
    <style>
      .st0 {
        fill: #0f0f0f;
      }
    </style>
  </defs>
  <path class="st0" d="M406.26,70.93c10.39,0,23.59,1.2,36.78,5.6v51.57c-11.19-5.6-22.39-8.4-33.98-8.4-33.58,0-56.37,23.99-56.37,60.76s22.79,60.76,56.37,60.76c11.59,0,22.79-2.8,33.98-8.4v51.57c-13.19,4.4-26.38,5.6-36.78,5.6-63.16,0-106.34-43.98-106.34-109.54s43.17-109.54,106.34-109.54ZM514.99,70.93c60.58,0,90.75,29.98,90.75,81.15v135.52h-46.37v-13.19h-.8c-10.79,9.6-26.38,15.19-43.97,15.19-38.38,0-66.36-27.18-66.36-69.56s27.98-69.96,66.36-69.96c15.59,0,29.18,4.4,39.98,12.39h.8v-9.6c0-23.99-14.39-37.58-40.38-37.58-17.99,0-34.38,6.4-46.37,13.19v-51.96c15.08-4,28.78-5.61,46.37-5.61ZM944.45,70.36c63.96,0,108.74,43.57,94.35,126.73h-146.72c7.2,27.58,29.98,44.77,64.36,44.77,20.79,0,46.38-6.4,64.77-21.99v53.57c-18.39,10-43.58,14.79-67.56,14.79-70.36,0-114.73-43.58-114.73-108.74s42.78-109.14,105.54-109.14ZM823.09,286.23h-46.77v-21.19h-.8c-15.59,15.99-37.98,22.79-59.97,22.79-55.57,0-95.94-43.57-95.95-108.74,0-65.16,40.38-109.14,96.34-109.14,21.59,0,41.58,6.4,55.97,17.59h.8V0h50.37v286.23ZM289.54,69.96c4.4,0,9.6.4,15.59,1.6v53.97c-7.2-3.2-15.99-5.6-24.79-5.6-16.79,0-29.98,8.8-29.98,30.38v135.92h-50.37V71.96h46.77v17.59h.8c8.79-12.39,23.19-19.59,41.98-19.59ZM88.76,4.03c56.09,0,88.66,34.85,88.66,87.05v195.05h-54.55v-90.27H54.65v90.27H.1V91.08C.1,38.87,32.67,4.03,88.76,4.03ZM529.39,187.66c-16.79,0-29.18,12.79-29.18,31.18s12.39,31.18,29.18,31.18,27.98-12.39,27.98-31.18-11.59-31.18-27.98-31.18ZM723.15,117.93c-30.38,0-51.17,23.59-51.17,61.17s20.79,60.76,51.17,60.76,51.57-22.39,51.57-61.16-21.99-60.76-51.57-60.76ZM944.05,114.73c-25.59,0-44.77,15.19-51.57,40.38h97.54c-1.2-25.98-20.79-40.38-45.97-40.38ZM88.76,57.22c-21.71,0-34.1,13.89-34.1,33.85v56.87h68.21v-55.26c0-19.96-12.39-35.46-34.1-35.46Z"/>
</svg>